<?xml version="1.0"?>
<svg xmlns="http://www.w3.org/2000/svg" xmlns:xlink="http://www.w3.org/1999/xlink" version="1.1" id="Capa_1" x="0px" y="0px" viewBox="0 0 512 512" style="enable-background:new 0 0 512 512;" xml:space="preserve" width="512px" height="512px" class=""><g><g>
	<g>
		<path d="M467,0c-24.813,0-45,20.187-45,45v17.58c-4.695-1.665-9.742-2.58-15-2.58c-24.813,0-45,20.187-45,45v78.568    c-6.126,2.154-11.871,5.669-16.752,10.55l-82.28,81.28c-2.533,2.533-4.853,5.221-6.971,8.033    c-2.133-2.833-4.473-5.542-7.028-8.097l-82.15-81.151c-4.906-4.906-10.672-8.437-16.817-10.599V105c0-24.813-20.187-45-45-45    c-5.258,0-10.305,0.915-15,2.58V45C90,20.187,69.813,0,45,0S0,20.187,0,45v194.381c0,13.59,3.696,26.933,10.688,38.587    l72.899,121.498C87.783,406.459,90,414.465,90,422.619V497c0,8.284,6.716,15,15,15h151h151c8.284,0,15-6.716,15-15v-74.381    c0-8.154,2.217-16.16,6.413-23.152l72.899-121.499C508.304,266.314,512,252.971,512,239.381V45C512,20.187,491.813,0,467,0z     M90,105c0-8.271,6.729-15,15-15s15,6.729,15,15v78.583c-6.145,2.162-11.912,5.694-16.817,10.599    c-3.717,3.717-6.646,7.926-8.789,12.42c-2.833-2.833-4.394-6.6-4.394-10.607C90,187.303,90,114.22,90,105z M240.999,482H120    v-59.381c0-13.59-3.696-26.933-10.688-38.587L36.413,262.533C32.217,255.541,30,247.535,30,239.381V45c0-8.271,6.729-15,15-15    s15,6.729,15,15c0,6.301,0,143.536,0,150.995v0.037c0,0.012,0.002,0.023,0.002,0.035c0.019,11.993,4.696,23.265,13.178,31.748    l81.213,81.213c5.857,5.858,15.355,5.858,21.213,0c5.858-5.858,5.858-15.355,0-21.213l-51.211-51.211    c-5.847-5.847-5.847-15.361,0-21.208c5.781-5.781,15.233-5.975,21.274,0.065l82.15,81.151c8.5,8.499,13.18,19.8,13.18,31.82V482z     M392,105c0-8.271,6.729-15,15-15s15,6.729,15,15v61v29.995c0,4.007-1.56,7.774-4.393,10.607l-0.002,0.002    c-2.142-4.495-5.071-8.705-8.788-12.421c-4.906-4.906-10.673-8.438-16.817-10.601V105z M482,239.381L482,239.381    c0,8.154-2.217,16.16-6.413,23.152l-72.899,121.499C395.696,395.686,392,409.029,392,422.619V482H271V328.431    c0-12.02,4.681-23.32,13.115-31.755l82.28-81.28c5.848-5.847,15.361-5.847,21.209,0c5.865,5.865,5.866,15.343,0,21.208    l-51.211,51.211c-5.858,5.858-5.858,15.355,0,21.213c5.857,5.858,15.355,5.858,21.213,0l81.214-81.213    c8.479-8.48,13.156-19.748,13.178-31.737c0-0.013,0.002-0.026,0.002-0.04v-0.043c0-8.692,0-81.775,0-90.995V45    c0-8.271,6.729-15,15-15s15,6.729,15,15V239.381z" data-original="#000000" class="active-path" data-old_color="#000000" fill="#138789"/>
	</g>
</g><g>
	<g>
		<path d="M293.212,30c-14.488,0-27.235,5.894-37.211,17.125C246.023,35.894,233.277,30,218.789,30    c-29.277,0-52.211,24.332-52.211,55.394c-0.001,38.05,34.441,60.807,79.598,99.941c2.819,2.443,6.321,3.665,9.824,3.665    s7.005-1.221,9.824-3.665c44.615-38.669,79.599-61.575,79.599-99.941C345.423,54.332,322.489,30,293.212,30z M255.999,154.238    c-38.53-32.758-59.423-48.735-59.423-68.844C196.577,72.775,204.207,60,218.789,60c16.107,0,22.335,19.851,22.767,21.296    c1.744,6.573,7.641,11.153,14.445,11.153c6.804,0,12.701-4.579,14.445-11.153C270.876,79.851,277.104,60,293.211,60    c14.582,0,22.211,12.775,22.211,25.394C315.422,105.831,292.859,122.901,255.999,154.238z" data-original="#000000" class="active-path" data-old_color="#000000" fill="#138789"/>
	</g>
</g></g> </svg>
